<mxfile host="app.diagrams.net" agent="Mozilla/5.0 (Macintosh; Intel Mac OS X 10_15_7) AppleWebKit/537.36 (KHTML, like Gecko) Chrome/131.0.0.0 Safari/537.36" version="26.0.2">
  <diagram name="第 1 页" id="StuFnmIY5Zls9bVpRX4j">
    <mxGraphModel dx="1194" dy="622" grid="1" gridSize="10" guides="1" tooltips="1" connect="1" arrows="1" fold="1" page="1" pageScale="1" pageWidth="827" pageHeight="1169" math="0" shadow="0">
      <root>
        <mxCell id="0" />
        <mxCell id="1" parent="0" />
        <mxCell id="tRkSOGVrORqJEETa7vW--1" value="&lt;font style=&quot;font-size: 24px;&quot;&gt;TS AST 解析器&lt;/font&gt;&lt;div&gt;&lt;font style=&quot;font-size: 14px;&quot;&gt;提供将TS语法抽象为AST节点树的能力&lt;/font&gt;&lt;/div&gt;" style="rounded=0;whiteSpace=wrap;html=1;fillColor=#ffe6cc;strokeColor=#d79b00;" vertex="1" parent="1">
          <mxGeometry x="220" y="780" width="340" height="80" as="geometry" />
        </mxCell>
        <mxCell id="tRkSOGVrORqJEETa7vW--2" value="&lt;font style=&quot;font-size: 24px;&quot;&gt;node 工具&lt;/font&gt;" style="rounded=0;whiteSpace=wrap;html=1;fillColor=#d5e8d4;strokeColor=#82b366;" vertex="1" parent="1">
          <mxGeometry x="220" y="710" width="170" height="60" as="geometry" />
        </mxCell>
        <mxCell id="tRkSOGVrORqJEETa7vW--3" value="&lt;font style=&quot;font-size: 24px;&quot;&gt;context 工具&lt;/font&gt;" style="rounded=0;whiteSpace=wrap;html=1;fillColor=#fff2cc;strokeColor=#d6b656;" vertex="1" parent="1">
          <mxGeometry x="400" y="710" width="160" height="60" as="geometry" />
        </mxCell>
        <mxCell id="tRkSOGVrORqJEETa7vW--4" value="&lt;font style=&quot;font-size: 24px;&quot;&gt;加固策略&lt;/font&gt;&lt;div&gt;&lt;font style=&quot;font-size: 14px;&quot;&gt;提供装箱即用的加固策略&lt;/font&gt;&lt;/div&gt;" style="rounded=0;whiteSpace=wrap;html=1;fillColor=#e1d5e7;strokeColor=#9673a6;" vertex="1" parent="1">
          <mxGeometry x="220" y="620" width="340" height="80" as="geometry" />
        </mxCell>
        <mxCell id="tRkSOGVrORqJEETa7vW--7" value="&lt;font style=&quot;font-size: 24px;&quot;&gt;cli工具&lt;/font&gt;" style="rounded=0;whiteSpace=wrap;html=1;fillColor=#f8cecc;strokeColor=#b85450;" vertex="1" parent="1">
          <mxGeometry x="220" y="550" width="340" height="60" as="geometry" />
        </mxCell>
      </root>
    </mxGraphModel>
  </diagram>
</mxfile>
